<?xml version="1.0" standalone="no"?>
<!DOCTYPE svg PUBLIC "-//W3C//DTD SVG 20010904//EN"
 "http://www.w3.org/TR/2001/REC-SVG-20010904/DTD/svg10.dtd">
<svg version="1.0" xmlns="http://www.w3.org/2000/svg"
 width="513.000000pt" height="513.000000pt" viewBox="0 0 513.000000 513.000000"
 preserveAspectRatio="xMidYMid meet">
<metadata>
Created by potrace 1.11, written by Peter Selinger 2001-2013
</metadata>
<g transform="translate(0.000000,513.000000) scale(0.100000,-0.100000)"
fill="#000000" stroke="none">
<path d="M2431 4884 c-52 -29 -101 -60 -109 -68 -21 -21 -19 -81 2 -105 33
-36 70 -36 134 0 111 63 94 62 181 12 89 -50 121 -51 159 -8 43 50 15 104 -82
154 -22 12 -60 33 -84 46 -61 36 -93 31 -201 -31z"/>
<path d="M1995 4642 c-16 -10 -57 -33 -90 -52 -169 -92 -236 -133 -245 -150
-27 -50 11 -120 66 -120 22 0 133 54 249 122 17 10 52 30 79 44 64 34 76 47
83 86 11 74 -70 114 -142 70z"/>
<path d="M3010 4642 c-12 -10 -24 -31 -25 -46 -7 -59 7 -70 215 -184 30 -17
80 -44 110 -61 65 -36 98 -39 134 -10 46 36 30 110 -32 142 -15 7 -43 23 -62
34 -19 11 -71 39 -115 63 -44 24 -93 52 -110 62 -38 23 -87 23 -115 0z"/>
<path d="M2516 4565 c-20 -14 -39 -25 -41 -25 -2 0 -62 -32 -132 -72 -70 -39
-144 -80 -163 -90 -19 -10 -42 -23 -50 -28 -13 -8 -78 -44 -295 -165 -27 -15
-79 -43 -115 -63 -36 -19 -137 -76 -225 -125 -88 -49 -189 -105 -225 -125 -36
-19 -107 -59 -158 -88 -52 -30 -95 -54 -97 -54 -2 0 -28 -14 -57 -31 -51 -30
-53 -30 -85 -15 -46 22 -89 20 -113 -4 -11 -11 -20 -23 -21 -27 0 -5 -2 -19
-5 -32 -3 -18 6 -33 36 -62 l40 -38 0 -973 0 -974 212 -117 c225 -124 246
-136 453 -251 72 -40 155 -87 185 -103 30 -17 134 -74 230 -128 96 -54 193
-107 215 -119 337 -185 375 -208 375 -233 0 -34 42 -73 80 -73 37 0 80 39 80
73 0 23 24 38 305 193 11 6 40 22 65 36 74 42 683 381 705 392 11 6 149 83
307 170 l288 159 2 980 3 980 29 17 c51 28 54 114 5 140 -26 15 -72 12 -95 -5
-10 -8 -23 -15 -29 -15 -5 0 -95 48 -200 106 -104 58 -228 126 -275 151 -47
25 -89 49 -95 53 -5 4 -35 21 -65 37 -74 41 -235 130 -290 161 -25 13 -124 69
-220 122 -96 53 -195 109 -220 122 -106 60 -302 168 -305 168 -1 0 -19 -11
-39 -25z"/>
<path d="M1345 4279 c-22 -12 -74 -40 -115 -64 -41 -23 -102 -57 -135 -74 -66
-36 -105 -73 -105 -99 0 -32 37 -79 67 -85 29 -6 99 27 316 151 99 57 115 75
108 127 -3 27 -47 65 -74 65 -12 -1 -40 -10 -62 -21z"/>
<path d="M3667 4280 c-36 -28 -38 -86 -4 -117 12 -11 96 -62 187 -113 175 -99
215 -110 251 -73 22 22 31 70 18 95 -10 19 -48 45 -139 95 -30 16 -93 51 -139
77 -102 59 -136 66 -174 36z"/>
<path d="M623 3878 c-73 -39 -115 -68 -122 -84 -6 -14 -11 -78 -11 -144 0
-109 2 -121 23 -144 32 -36 80 -38 115 -6 20 19 22 31 22 114 l0 93 71 39 c87
47 113 77 105 119 -4 16 -14 38 -24 47 -35 34 -63 29 -179 -34z"/>
<path d="M4345 3930 c-28 -11 -44 -31 -51 -67 -7 -37 20 -71 91 -109 90 -49
84 -39 83 -134 0 -96 11 -127 52 -137 39 -11 63 -4 88 23 20 23 22 34 22 153
0 153 2 149 -139 224 -99 53 -116 58 -146 47z"/>
<path d="M553 3248 c-60 -16 -63 -29 -63 -269 0 -200 1 -218 20 -241 11 -14
31 -28 44 -30 32 -6 84 18 91 43 8 25 9 430 1 455 -10 32 -56 53 -93 42z"/>
<path d="M4490 3228 c-11 -12 -20 -31 -21 -42 -5 -176 1 -422 11 -442 24 -43
92 -48 128 -8 21 24 22 31 22 243 0 206 -1 220 -21 245 -27 34 -88 37 -119 4z"/>
<path d="M543 2479 c-50 -19 -54 -40 -51 -279 3 -219 3 -222 27 -241 33 -27
82 -25 110 5 22 23 23 30 22 218 0 256 0 250 -15 271 -18 23 -65 36 -93 26z"/>
<path d="M4525 2479 c-54 -15 -57 -31 -57 -272 0 -213 1 -220 23 -243 31 -33
82 -32 114 1 l25 24 0 219 c0 203 -1 221 -20 244 -24 31 -45 37 -85 27z"/>
<path d="M544 1709 c-45 -16 -54 -45 -54 -171 0 -64 5 -128 11 -141 6 -14 49
-44 112 -79 131 -71 152 -75 192 -32 50 54 28 98 -76 155 l-79 44 0 92 c0 80
-3 96 -20 113 -11 11 -23 20 -27 21 -5 0 -15 2 -23 3 -8 2 -25 0 -36 -5z"/>
<path d="M4508 1704 c-35 -18 -41 -42 -40 -139 l1 -80 -74 -43 c-86 -49 -110
-78 -100 -121 7 -33 19 -45 57 -60 21 -8 36 -4 84 20 122 61 173 93 183 116
15 32 14 245 -1 277 -17 38 -69 52 -110 30z"/>
<path d="M1042 1227 c-13 -6 -31 -24 -40 -40 -16 -26 -16 -29 3 -63 14 -24 40
-47 80 -69 33 -17 111 -60 174 -95 133 -73 162 -80 197 -45 27 27 33 80 12
107 -7 9 -51 37 -98 63 -321 177 -288 163 -328 142z"/>
<path d="M3975 1209 c-33 -18 -106 -58 -163 -91 -57 -32 -107 -58 -111 -58
-22 0 -61 -55 -61 -84 0 -64 62 -102 119 -73 95 49 340 189 349 200 23 28 23
75 0 101 -36 40 -65 41 -133 5z"/>
<path d="M1691 859 c-34 -21 -48 -59 -35 -97 9 -25 32 -41 164 -114 36 -20 98
-55 139 -77 41 -23 87 -41 103 -41 57 0 96 68 68 120 -5 10 -36 33 -67 50 -32
18 -83 45 -113 62 -30 16 -84 47 -120 67 -86 49 -102 53 -139 30z"/>
<path d="M3340 857 c-131 -69 -328 -184 -342 -200 -24 -26 -16 -86 14 -111 16
-13 33 -17 58 -13 40 6 356 178 383 209 9 11 17 35 17 53 0 60 -70 93 -130 62z"/>
<path d="M2334 486 c-22 -18 -28 -32 -27 -61 1 -21 7 -43 15 -50 27 -27 216
-125 239 -125 36 0 238 117 249 144 11 30 2 71 -22 92 -33 30 -74 26 -147 -17
-38 -21 -73 -39 -80 -39 -7 0 -45 18 -85 40 -84 46 -105 49 -142 16z"/>
</g>
</svg>
